<?xml version="1.0" encoding="utf-8"?>
<!-- Generator: Adobe Illustrator 24.1.0, SVG Export Plug-In . SVG Version: 6.00 Build 0)  -->
<!DOCTYPE svg PUBLIC "-//W3C//DTD SVG 1.1//EN" "http://www.w3.org/Graphics/SVG/1.1/DTD/svg11.dtd" [
	<!ENTITY ns_extend "http://ns.adobe.com/Extensibility/1.0/">
	<!ENTITY ns_ai "http://ns.adobe.com/AdobeIllustrator/10.0/">
	<!ENTITY ns_graphs "http://ns.adobe.com/Graphs/1.0/">
	<!ENTITY ns_vars "http://ns.adobe.com/Variables/1.0/">
	<!ENTITY ns_imrep "http://ns.adobe.com/ImageReplacement/1.0/">
	<!ENTITY ns_sfw "http://ns.adobe.com/SaveForWeb/1.0/">
	<!ENTITY ns_custom "http://ns.adobe.com/GenericCustomNamespace/1.0/">
	<!ENTITY ns_adobe_xpath "http://ns.adobe.com/XPath/1.0/">
]>
<svg version="1.1" id="Layer_1" xmlns:x="&ns_extend;" xmlns:i="&ns_ai;" xmlns:graph="&ns_graphs;"
	 xmlns="http://www.w3.org/2000/svg" xmlns:xlink="http://www.w3.org/1999/xlink" x="0px" y="0px" viewBox="0 0 83 70"
	 style="enable-background:new 0 0 83 70;" xml:space="preserve">
<style type="text/css">
	.st0{fill:#1E1E1E;}
</style>
<metadata>
	<sfw  xmlns="&ns_sfw;">
		<slices></slices>
		<sliceSourceBounds  bottomLeftOrigin="true" height="65.2" width="75.7" x="3.3" y="-67"></sliceSourceBounds>
	</sfw>
</metadata>
<g>
	<g>
		<path class="st0" d="M46,61.7c0,2.9-2.2,5.3-4.8,5.3c-2.7,0-4.8-2.4-4.8-5.3c0-0.2,0-0.4,0-0.6c1.9,0.1,3.8,0.1,5.8,0.1
			c1.3,0,2.6,0,3.8,0C46,61.3,46,61.5,46,61.7z"/>
		<path class="st0" d="M63.3,50.8c-2-3.2-4.9-9.4-5.9-19.1L57,23.9C57,15.7,51.9,8.8,44.9,7c0-0.2,0-0.4,0-0.6
			c0-2.5-1.7-4.5-3.8-4.5s-3.8,2-3.8,4.5c0,0.2,0,0.4,0,0.6c-6.9,1.9-12.1,8.7-12.1,16.9l-0.4,7.8c-1,9.7-3.9,15.9-5.9,19.1
			C12.9,52,12,53.4,12,54.5c0,1.2,1,2.8,9,4c5.4,0.8,12.5,1.3,20.1,1.3c7.6,0,14.7-0.5,20.1-1.3c8-1.3,9-2.8,9-4
			C70.3,53.4,69.4,52,63.3,50.8z M39.3,6.3C39.3,5,40.1,4,41.2,4C42.2,4,43,5,43,6.3c0,0.1,0,0.2,0,0.2c-0.6-0.1-1.2-0.1-1.9-0.1
			c0,0,0,0,0,0s0,0,0,0c-0.6,0-1.3,0-1.9,0.1C39.3,6.5,39.3,6.4,39.3,6.3z"/>
	</g>
	<g>
		<g>
			<path class="st0" d="M7.8,31.5c0,5.1,1.3,9.9,3.5,14.2l-3.9,2.5c-2.7-4.9-4.2-10.6-4.2-16.6c0-8.7,3.2-16.7,8.5-22.8l3,3.5
				C10.5,17.4,7.8,24.2,7.8,31.5z"/>
			<path class="st0" d="M15.3,31.2c0,3.7,0.9,7.3,2.5,10.4l-3.7,2.4c-2-3.8-3.2-8.1-3.2-12.7c0-6.3,2.2-12.1,5.8-16.8l2.9,3.4
				C16.9,21.6,15.3,26.2,15.3,31.2z"/>
		</g>
		<g>
			<path class="st0" d="M74.5,31.5c0,5.1-1.3,9.9-3.5,14.2l3.9,2.5c2.7-4.9,4.2-10.6,4.2-16.6c0-8.7-3.2-16.7-8.5-22.8l-3,3.5
				C71.9,17.4,74.5,24.2,74.5,31.5z"/>
			<path class="st0" d="M67,31.2c0,3.7-0.9,7.3-2.5,10.4l3.7,2.4c2-3.8,3.2-8.1,3.2-12.7c0-6.3-2.2-12.1-5.8-16.8l-2.9,3.4
				C65.4,21.6,67,26.2,67,31.2z"/>
		</g>
	</g>
</g>
</svg>
